# xmcd
#
# Track frame offsets: 
#        150
#        23771
#        49623
#        66613
#        85270
#        111847
#        130415
#        148844
#        174414
#        190092
#        204785
#        223568
#        239697
#
# Disc length: 3385 seconds
#
# Revision: 0
# Processed by: cddbd v1.5.2PL0 Copyright (c) Steve Scherf et al.
# Submitted via: ExactAudioCopy v0.95a4
#
DISCID=bf0d370d
DTITLE=Ricchi&Poveri - Легенды дискотек 80-х
DYEAR=2008
DGENRE=Pop
TTITLE0=Mamma Maria
TTITLE1=Sara perche
TTITLE2=Che Sara
TTITLE3=Com Vorrei
TTITLE4=Se Minnamoro
TTITLE5=La Prima Cosa
TTITLE6=Mi Innamore DJ
TTITLE7=Made in Italy
TTITLE8=Sara Perche
TTITLE9=Che Sara
TTITLE10=Mamma Maria
TTITLE11=Se Minnamore - Radio
TTITLE12=Made in Italy Radio
EXTD=
EXTT0=
EXTT1=
EXTT2=
EXTT3=
EXTT4=
EXTT5=
EXTT6=
EXTT7=
EXTT8=
EXTT9=
EXTT10=
EXTT11=
EXTT12=
PLAYORDER=
